# xmcd
#
# Track frame offsets:
#	150
#	20498
#	40813
#	55781
#	68107
#	87723
#	102419
#	117113
#	130806
#	144479
#	159021
#	179866
#	193324
#	208688
#	225286
#	242894
#	257592
#
# Disc length: 3694 seconds
#
# Revision: 0
# Processed by: cddbd v1.5.2PL0 Copyright (c) Steve Scherf et al.
# Submitted via: EasyCDDAExtractor 15.2.5.1
#
DISCID=f00e6c11
DTITLE=黑鴨子 - 黑鴨子聖誕經典
DYEAR=1920
DGENRE=Trip-Hop
TTITLE0=平安夜(中文)
TTITLE1=平安夜(英文)
TTITLE2=歡樂頌(中文)
TTITLE3=噢！蘇珊娜(中文)
TTITLE4=聖誕節(中文)
TTITLE5=鈴儿响叮當(中文)
TTITLE6=鈴儿响叮當(英文)
TTITLE7=雪絨花(中文)
TTITLE8=雪絨花(英文)
TTITLE9=哆來咪(中文)
TTITLE10=小夜曲(中文)
TTITLE11=祝你聖誕快樂(中文)
TTITLE12=含苞欲放的花(中文)
TTITLE13=星星索(中文)
TTITLE14=友誼地久天長(中文)
TTITLE15=摇藍曲(中文)
TTITLE16=手拉手(中文)
EXTD=
EXTT0=
EXTT1=
EXTT2=
EXTT3=
EXTT4=
EXTT5=
EXTT6=
EXTT7=
EXTT8=
EXTT9=
EXTT10=
EXTT11=
EXTT12=
EXTT13=
EXTT14=
EXTT15=
EXTT16=
PLAYORDER=
